<svg width="33" height="33" viewBox="0 0 33 34" fill="none" xmlns="http://www.w3.org/2000/svg"><path fill-rule="evenodd" clip-rule="evenodd" d="M32.5521 33.1667H25.8356V31.7647C21.7698 31.3232 18.8971 28.6386 18.8971 25.1301C18.8971 21.5896 21.4692 18.4859 25.8356 18.067V16.1485C20.8867 16.6494 17.7516 19.7639 17.0902 23.5346V0.368424H32.5521V33.1667ZM13.1213 23.2404C12.4638 19.2794 9.33254 16.4878 3.9205 16.2585V0.368424H13.1213V23.2404ZM17.0902 26.5102C17.6673 29.7395 20.1951 32.2804 23.7633 33.1675H17.0902V26.5102ZM13.1184 26.3652V33.1684H5.69362C9.78018 32.4249 12.5153 29.8714 13.1184 26.3652ZM3.9205 18.1861C9.01299 18.1861 11.3115 21.0743 11.3115 24.9277C11.3115 28.7733 8.61341 31.6311 3.9205 31.6311V18.1861ZM0 33.5348H33V0H0V33.5348Z" fill="url(#paint0_linear_2214_69)"></path><defs><linearGradient id="paint0_linear_2214_69" x1="-24" y1="-20.5" x2="-22.9296" y2="41.5001" gradientUnits="userSpaceOnUse"><stop stop-color="#2A2F4E"></stop><stop offset="1" stop-color="#1A80F1"></stop></linearGradient></defs></svg>