<svg width="390" height="369" viewBox="0 0 390 369" fill="none" xmlns="http://www.w3.org/2000/svg">
<path d="M85.7801 0C85.7801 0 95.3055 338.072 196 337.08M196 337.08C281.59 336.237 333.146 0 333.146 0M196 337.08C98.3421 339.9 0 8.18912 0 8.18912M196 337.08C283.367 334.557 390 8.18912 390 8.18912M196 337.08C95.4145 341.988 0 198.586 0 198.586M196 337.08C290.83 332.453 390 198.586 390 198.586M0 85.9857C0 85.9857 98.3763 371.832 196 367.961C285.572 364.409 390 85.9857 390 85.9857M0 143.31C0 143.31 97.9365 307.276 196 303.111C286.604 299.263 390 143.31 390 143.31" stroke="#A8404A" stroke-opacity="0.45" stroke-width="1.5"/>
</svg>
