<svg width="21" height="20" viewBox="0 0 21 20" fill="none" xmlns="http://www.w3.org/2000/svg">
<path fill-rule="evenodd" clip-rule="evenodd" d="M11.5 3.33325C11.5 2.78097 11.0523 2.33325 10.5 2.33325C9.94776 2.33325 9.50004 2.78097 9.50004 3.33325V8.99992H3.83337C3.28109 8.99992 2.83337 9.44763 2.83337 9.99992C2.83337 10.5522 3.28109 10.9999 3.83337 10.9999H9.50004V16.6666C9.50004 17.2189 9.94776 17.6666 10.5 17.6666C11.0523 17.6666 11.5 17.2189 11.5 16.6666V10.9999H17.1667C17.719 10.9999 18.1667 10.5522 18.1667 9.99992C18.1667 9.44763 17.719 8.99992 17.1667 8.99992H11.5V3.33325Z" fill="black"/>
</svg>
