<svg width="20" height="20" viewBox="0 0 20 20" fill="none" xmlns="http://www.w3.org/2000/svg">
<path fill-rule="evenodd" clip-rule="evenodd" d="M9.17688 4.21675C9.64816 3.80438 10.3519 3.80438 10.8231 4.21675L15.4898 8.30008C15.7611 8.53744 15.9167 8.88035 15.9167 9.2408V15.4999C15.9167 16.1903 15.357 16.7499 14.6667 16.7499H5.33334C4.64299 16.7499 4.08334 16.1903 4.08334 15.4999V9.24081C4.08334 8.88035 4.23894 8.53744 4.51021 8.30008L9.17688 4.21675ZM11.8109 3.08789C10.7741 2.18067 9.22594 2.18067 8.18912 3.08788L3.52246 7.17122C2.92566 7.69341 2.58334 8.44781 2.58334 9.24081V15.4999C2.58334 17.0187 3.81456 18.2499 5.33334 18.2499H14.6667C16.1855 18.2499 17.4167 17.0187 17.4167 15.4999V9.2408C17.4167 8.44781 17.0744 7.69341 16.4776 7.17122L11.8109 3.08789ZM6.00009 14.2498C5.58588 14.2498 5.25009 14.5855 5.25009 14.9998C5.25009 15.414 5.58588 15.7498 6.00009 15.7498H14.0001C14.4143 15.7498 14.7501 15.414 14.7501 14.9998C14.7501 14.5855 14.4143 14.2498 14.0001 14.2498H6.00009Z" fill="white"/>
</svg>
