<svg width="25" height="24" viewBox="0 0 25 24" fill="none" xmlns="http://www.w3.org/2000/svg">
<path fill-rule="evenodd" clip-rule="evenodd" d="M8 6C7.17157 6 6.5 6.67157 6.5 7.5C6.5 8.32843 7.17157 9 8 9C8.82843 9 9.5 8.32843 9.5 7.5C9.5 6.67157 8.82843 6 8 6ZM4.5 7.5C4.5 5.567 6.067 4 8 4C9.933 4 11.5 5.567 11.5 7.5C11.5 9.433 9.933 11 8 11C6.067 11 4.5 9.433 4.5 7.5ZM19.2071 5.29289C19.5976 5.68342 19.5976 6.31658 19.2071 6.70711L7.20711 18.7071C6.81658 19.0976 6.18342 19.0976 5.79289 18.7071C5.40237 18.3166 5.40237 17.6834 5.79289 17.2929L17.7929 5.29289C18.1834 4.90237 18.8166 4.90237 19.2071 5.29289ZM15.5 16.5C15.5 15.6716 16.1716 15 17 15C17.8284 15 18.5 15.6716 18.5 16.5C18.5 17.3284 17.8284 18 17 18C16.1716 18 15.5 17.3284 15.5 16.5ZM17 13C15.067 13 13.5 14.567 13.5 16.5C13.5 18.433 15.067 20 17 20C18.933 20 20.5 18.433 20.5 16.5C20.5 14.567 18.933 13 17 13Z" fill="black"/>
</svg>
