<svg width="21" height="20" viewBox="0 0 21 20" fill="none" xmlns="http://www.w3.org/2000/svg">
<path fill-rule="evenodd" clip-rule="evenodd" d="M6.24753 6.60581L6.24748 6.60519L6.24736 6.60312C6.24703 6.59813 6.24646 6.58873 6.24582 6.57522C6.24454 6.54816 6.24301 6.50478 6.24267 6.44744C6.24199 6.33246 6.24608 6.16316 6.26602 5.95807C6.3063 5.54381 6.40906 5.00614 6.65056 4.47924C6.88953 3.95785 7.26028 3.45439 7.84175 3.07722C8.42248 2.70053 9.2643 2.41675 10.5 2.41675C11.7357 2.41675 12.5775 2.70053 13.1583 3.07722C13.7397 3.45439 14.1105 3.95785 14.3495 4.47924C14.591 5.00614 14.6937 5.54381 14.734 5.95807C14.7539 6.16316 14.758 6.33246 14.7573 6.44744C14.757 6.50478 14.7555 6.54816 14.7542 6.57522C14.7536 6.58873 14.753 6.59813 14.7527 6.60312L14.7525 6.60581L14.7524 6.60672L14.7524 6.60679L14.7524 6.60723L14.75 6.63555V6.66675V10.0001V10.3107L14.9697 10.5304L16.4167 11.9774V13.4167H13.75H13H8.00001H7.25001H4.58334V11.9774L6.03034 10.5304L6.25001 10.3107V10.0001V6.66675V6.63555L6.24764 6.60723L6.24761 6.60676L6.2476 6.60672L6.24753 6.60581ZM7.25001 14.9167H3.83334H3.08334V14.1667V11.6667V11.3561L3.30301 11.1364L4.75001 9.68942V6.69245C4.74923 6.67984 4.74835 6.6643 4.74749 6.64597C4.74531 6.59979 4.74317 6.53575 4.7427 6.45637C4.74176 6.29792 4.74743 6.07659 4.77306 5.81292C4.82393 5.28969 4.95554 4.57736 5.28696 3.85426C5.62091 3.12565 6.16161 2.37911 7.02546 1.81878C7.89004 1.25797 9.02738 0.916748 10.5 0.916748C11.9726 0.916748 13.11 1.25797 13.9746 1.81878C14.8384 2.37911 15.3791 3.12565 15.7131 3.85426C16.0445 4.57736 16.1761 5.28969 16.227 5.81292C16.2526 6.07659 16.2583 6.29792 16.2573 6.45637C16.2568 6.53575 16.2547 6.59979 16.2525 6.64597C16.2517 6.6643 16.2508 6.67985 16.25 6.69245V9.68942L17.697 11.1364L17.9167 11.3561V11.6667V14.1667V14.9167H17.1667H13.75V15.0001C13.75 16.795 12.2949 18.2501 10.5 18.2501C8.70508 18.2501 7.25001 16.795 7.25001 15.0001V14.9167ZM8.75001 14.9167V15.0001C8.75001 15.9666 9.53351 16.7501 10.5 16.7501C11.4665 16.7501 12.25 15.9666 12.25 15.0001V14.9167H8.75001Z" fill="white"/>
</svg>
