<svg width="20" height="20" viewBox="0 0 20 20" fill="none" xmlns="http://www.w3.org/2000/svg">
<path fill-rule="evenodd" clip-rule="evenodd" d="M5.7475 6.60581L5.74745 6.60519L5.74733 6.60312C5.747 6.59813 5.74643 6.58873 5.74579 6.57522C5.74451 6.54816 5.74298 6.50478 5.74264 6.44744C5.74196 6.33246 5.74605 6.16316 5.76599 5.95807C5.80627 5.54381 5.90903 5.00614 6.15053 4.47924C6.3895 3.95785 6.76025 3.45439 7.34172 3.07722C7.92245 2.70053 8.76427 2.41675 9.99998 2.41675C11.2357 2.41675 12.0775 2.70053 12.6582 3.07722C13.2397 3.45439 13.6105 3.95785 13.8494 4.47924C14.0909 5.00614 14.1937 5.54381 14.234 5.95807C14.2539 6.16316 14.258 6.33246 14.2573 6.44744C14.257 6.50478 14.2554 6.54816 14.2542 6.57522C14.2535 6.58873 14.253 6.59813 14.2526 6.60312L14.2525 6.60581L14.2524 6.60672L14.2524 6.60679L14.2523 6.60723L14.25 6.63555V6.66675V10.0001V10.3107L14.4696 10.5304L15.9166 11.9774V13.4167H13.25H12.5H7.49998H6.74998H4.08331V11.9774L5.53031 10.5304L5.74998 10.3107V10.0001V6.66675V6.63555L5.74761 6.60723L5.74758 6.60676L5.74757 6.60672L5.7475 6.60581ZM6.74998 14.9167H3.33331H2.58331V14.1667V11.6667V11.3561L2.80298 11.1364L4.24998 9.68942V6.69245C4.2492 6.67984 4.24832 6.6643 4.24746 6.64597C4.24528 6.59979 4.24314 6.53575 4.24267 6.45637C4.24173 6.29792 4.2474 6.07659 4.27303 5.81292C4.3239 5.28969 4.45551 4.57736 4.78693 3.85426C5.12088 3.12565 5.66158 2.37911 6.52543 1.81878C7.39001 1.25797 8.52735 0.916748 9.99998 0.916748C11.4726 0.916748 12.6099 1.25797 13.4745 1.81878C14.3384 2.37911 14.8791 3.12565 15.213 3.85426C15.5444 4.57736 15.6761 5.28969 15.7269 5.81292C15.7526 6.07659 15.7582 6.29792 15.7573 6.45637C15.7568 6.53575 15.7547 6.59979 15.7525 6.64597C15.7516 6.6643 15.7508 6.67985 15.75 6.69245V9.68942L17.197 11.1364L17.4166 11.3561V11.6667V14.1667V14.9167H16.6666H13.25V15.0001C13.25 16.795 11.7949 18.2501 9.99998 18.2501C8.20505 18.2501 6.74998 16.795 6.74998 15.0001V14.9167ZM8.24998 14.9167V15.0001C8.24998 15.9666 9.03348 16.7501 9.99998 16.7501C10.9665 16.7501 11.75 15.9666 11.75 15.0001V14.9167H8.24998Z" fill="#656461"/>
</svg>
