<svg width="20" height="20" viewBox="0 0 20 20" fill="none" xmlns="http://www.w3.org/2000/svg">
<path fill-rule="evenodd" clip-rule="evenodd" d="M6.23608 4.08325C5.76261 4.08325 5.32978 4.35076 5.11804 4.77424L4.54687 5.91659H15.4532L14.882 4.77424C14.6702 4.35075 14.2374 4.08325 13.7639 4.08325H6.23608ZM4.08334 14.6666V7.41659H15.9167V14.6666C15.9167 15.3569 15.357 15.9166 14.6667 15.9166H5.33334C4.64299 15.9166 4.08334 15.3569 4.08334 14.6666ZM3.7764 4.10342C4.24223 3.17176 5.19445 2.58325 6.23608 2.58325H13.7639C14.8056 2.58325 15.7578 3.17176 16.2236 4.10341L17.1264 5.90888C17.3173 6.29074 17.4167 6.7118 17.4167 7.13872V14.6666C17.4167 16.1854 16.1855 17.4166 14.6667 17.4166H5.33334C3.81456 17.4166 2.58334 16.1854 2.58334 14.6666V7.13872C2.58334 6.7118 2.68274 6.29074 2.87367 5.90888L3.7764 4.10342ZM8.25001 9.99992C8.25001 9.58571 7.91422 9.24992 7.50001 9.24992C7.0858 9.24992 6.75001 9.58571 6.75001 9.99992C6.75001 11.7948 8.20508 13.2499 10 13.2499C11.7949 13.2499 13.25 11.7948 13.25 9.99992C13.25 9.58571 12.9142 9.24992 12.5 9.24992C12.0858 9.24992 11.75 9.58571 11.75 9.99992C11.75 10.9664 10.9665 11.7499 10 11.7499C9.03351 11.7499 8.25001 10.9664 8.25001 9.99992Z" fill="white"/>
</svg>
