<svg width="21" height="20" viewBox="0 0 21 20" fill="none" xmlns="http://www.w3.org/2000/svg">
<path fill-rule="evenodd" clip-rule="evenodd" d="M6.73608 4.08325C6.26261 4.08325 5.82978 4.35076 5.61804 4.77424L5.04687 5.91659H15.9532L15.382 4.77424C15.1702 4.35075 14.7374 4.08325 14.2639 4.08325H6.73608ZM4.58334 14.6666V7.41659H16.4167V14.6666C16.4167 15.3569 15.857 15.9166 15.1667 15.9166H5.83334C5.14299 15.9166 4.58334 15.3569 4.58334 14.6666ZM4.2764 4.10342C4.74223 3.17176 5.69445 2.58325 6.73608 2.58325H14.2639C15.3056 2.58325 16.2578 3.17176 16.7236 4.10341L17.6264 5.90888C17.8173 6.29074 17.9167 6.7118 17.9167 7.13872V14.6666C17.9167 16.1854 16.6855 17.4166 15.1667 17.4166H5.83334C4.31456 17.4166 3.08334 16.1854 3.08334 14.6666V7.13872C3.08334 6.7118 3.18274 6.29074 3.37367 5.90888L4.2764 4.10342ZM8.75001 9.99992C8.75001 9.58571 8.41422 9.24992 8.00001 9.24992C7.5858 9.24992 7.25001 9.58571 7.25001 9.99992C7.25001 11.7948 8.70508 13.2499 10.5 13.2499C12.2949 13.2499 13.75 11.7948 13.75 9.99992C13.75 9.58571 13.4142 9.24992 13 9.24992C12.5858 9.24992 12.25 9.58571 12.25 9.99992C12.25 10.9664 11.4665 11.7499 10.5 11.7499C9.53351 11.7499 8.75001 10.9664 8.75001 9.99992Z" fill="#656461"/>
</svg>
