<svg width="20" height="20" viewBox="0 0 20 20" fill="none" xmlns="http://www.w3.org/2000/svg">
<path fill-rule="evenodd" clip-rule="evenodd" d="M8.25002 5.83325C8.25002 4.86675 9.03352 4.08325 10 4.08325C10.9665 4.08325 11.75 4.86675 11.75 5.83325C11.75 6.79975 10.9665 7.58325 10 7.58325C9.03352 7.58325 8.25002 6.79975 8.25002 5.83325ZM10 2.58325C8.2051 2.58325 6.75002 4.03833 6.75002 5.83325C6.75002 7.62818 8.2051 9.08325 10 9.08325C11.7949 9.08325 13.25 7.62818 13.25 5.83325C13.25 4.03833 11.7949 2.58325 10 2.58325ZM15.0553 15.9166H4.94479C5.20686 13.4803 7.26973 11.5833 9.77566 11.5833H10.2244C12.7303 11.5833 14.7932 13.4803 15.0553 15.9166ZM9.77566 10.0833C6.2637 10.0833 3.41669 12.9303 3.41669 16.4422C3.41669 16.9803 3.85292 17.4166 4.39105 17.4166H15.609C16.1471 17.4166 16.5834 16.9803 16.5834 16.4422C16.5834 12.9303 13.7363 10.0833 10.2244 10.0833H9.77566Z" fill="#656461"/>
</svg>
