<svg width="20" height="20" viewBox="0 0 20 20" fill="none" xmlns="http://www.w3.org/2000/svg">
<path fill-rule="evenodd" clip-rule="evenodd" d="M4.75 5.75C4.75 3.95507 6.20508 2.5 8 2.5H12C13.7949 2.5 15.25 3.95507 15.25 5.75V7.04534C15.0879 7.01556 14.9207 7 14.75 7H12.25H11.5V7.75V13.75V14.5H12.25H14.75C14.9207 14.5 15.0879 14.4844 15.25 14.4547V15.5C15.25 16.1904 14.6904 16.75 14 16.75H12.2125C12.0388 15.8942 11.2821 15.25 10.375 15.25H9.625C8.58947 15.25 7.75 16.0895 7.75 17.125C7.75 18.1605 8.58947 19 9.625 19H10.375C10.9884 19 11.5331 18.7054 11.8751 18.25H14C15.5188 18.25 16.75 17.0188 16.75 15.5V13.6375C17.215 13.145 17.5 12.4808 17.5 11.75V9.75C17.5 9.01923 17.215 8.35504 16.75 7.86253V5.75C16.75 3.12665 14.6234 1 12 1H8C5.37665 1 3.25 3.12665 3.25 5.75V7.86253C2.78504 8.35504 2.5 9.01923 2.5 9.75V11.75C2.5 13.2688 3.73122 14.5 5.25 14.5H7.75H8.5V13.75V7.75V7H7.75H5.25C5.07925 7 4.91214 7.01556 4.75 7.04534V5.75ZM5.25 8.5C4.55964 8.5 4 9.05964 4 9.75V11.75C4 12.4404 4.55964 13 5.25 13H7V8.5H5.25ZM13 8.5V13H14.75C15.4404 13 16 12.4404 16 11.75V9.75C16 9.05964 15.4404 8.5 14.75 8.5H13ZM10.75 17.125C10.75 17.3321 10.5821 17.5 10.375 17.5H9.625C9.41789 17.5 9.25 17.3321 9.25 17.125C9.25 16.9179 9.41789 16.75 9.625 16.75H10.375C10.5821 16.75 10.75 16.9179 10.75 17.125Z" fill="white"/>
</svg>
