<svg width="20" height="20" viewBox="0 0 20 20" fill="none" xmlns="http://www.w3.org/2000/svg">
<path fill-rule="evenodd" clip-rule="evenodd" d="M4.08333 4.83325C4.08333 3.03833 5.53841 1.58325 7.33333 1.58325H12.6667C14.4616 1.58325 15.9167 3.03833 15.9167 4.83325V6.78128C15.7808 6.76063 15.6416 6.74992 15.5 6.74992H12.5H11.75V7.49992V14.1666V14.9166H12.5H15.5C15.6416 14.9166 15.7808 14.9059 15.9167 14.8852V16.3333C15.9167 17.0236 15.357 17.5833 14.6667 17.5833H12.389C12.2303 16.6373 11.4077 15.9166 10.4167 15.9166H9.58333C8.47877 15.9166 7.58333 16.812 7.58333 17.9166C7.58333 19.0212 8.47876 19.9166 9.58333 19.9166H10.4167C11.0858 19.9166 11.6783 19.5879 12.0413 19.0833H14.6667C16.1855 19.0833 17.4167 17.852 17.4167 16.3333V14.1386C17.9307 13.6389 18.25 12.9401 18.25 12.1666V9.49992C18.25 8.72645 17.9307 8.02756 17.4167 7.52789V4.83325C17.4167 2.2099 15.29 0.083252 12.6667 0.083252H7.33333C4.70998 0.083252 2.58333 2.2099 2.58333 4.83325V7.52789C2.06932 8.02756 1.75 8.72645 1.75 9.49992V12.1666C1.75 13.6854 2.98122 14.9166 4.5 14.9166H7.5H8.25V14.1666V7.49992V6.74992H7.5H4.5C4.35835 6.74992 4.21921 6.76063 4.08333 6.78128V4.83325ZM4.0503 8.33325H4.08333V8.32105C4.21366 8.27498 4.3539 8.24992 4.5 8.24992H6.75V13.4166H4.5C3.80964 13.4166 3.25 12.8569 3.25 12.1666V9.49992C3.25 8.96809 3.58214 8.51383 4.0503 8.33325ZM15.9167 8.32105V8.33325H15.9497C16.4179 8.51383 16.75 8.96809 16.75 9.49992V12.1666C16.75 12.6984 16.4179 13.1527 15.9497 13.3333H15.9167V13.3455C15.7863 13.3915 15.6461 13.4166 15.5 13.4166H13.25V8.24992H15.5C15.6461 8.24992 15.7863 8.27498 15.9167 8.32105ZM10.9167 17.9166C10.9167 18.1927 10.6928 18.4166 10.4167 18.4166H9.58333C9.30719 18.4166 9.08333 18.1927 9.08333 17.9166C9.08333 17.6404 9.30719 17.4166 9.58333 17.4166H10.4167C10.6928 17.4166 10.9167 17.6404 10.9167 17.9166Z" fill="#656461"/>
</svg>
