<svg width="21" height="20" viewBox="0 0 21 20" fill="none" xmlns="http://www.w3.org/2000/svg">
<path fill-rule="evenodd" clip-rule="evenodd" d="M9.5 16.6666C9.5 17.2189 9.94772 17.6666 10.5 17.6666C11.0523 17.6666 11.5 17.2189 11.5 16.6666L11.5 3.33325C11.5 2.78097 11.0523 2.33325 10.5 2.33325C9.94772 2.33325 9.5 2.78097 9.5 3.33325L9.5 16.6666ZM15.5 17.6666C14.9477 17.6666 14.5 17.2189 14.5 16.6666L14.5 6.66658C14.5 6.1143 14.9477 5.66658 15.5 5.66658C16.0523 5.66658 16.5 6.1143 16.5 6.66658L16.5 16.6666C16.5 17.2189 16.0523 17.6666 15.5 17.6666ZM5.5 17.6666C4.94772 17.6666 4.5 17.2189 4.5 16.6666V11.6666C4.5 11.1143 4.94772 10.6666 5.5 10.6666C6.05228 10.6666 6.5 11.1143 6.5 11.6666L6.5 16.6666C6.5 17.2189 6.05229 17.6666 5.5 17.6666Z" fill="black"/>
</svg>
